<svg width="32" height="24" viewBox="0 0 32 24" fill="none" xmlns="http://www.w3.org/2000/svg">
<g clip-path="url(#clip0_1_61)">
<path d="M9.73961 20.3645L8.90714 18.7934L18.6057 0L20.3789 0.0394737L9.73961 20.3645Z" fill="#FB3B33"/>
<path d="M13.3939 24L11.6207 23.9605L22.3346 3.78949L23.1298 5.39607L13.3939 24Z" fill="#FB3B33"/>
<path d="M22.5362 5.24213L20.0612 1.75265C19.7849 1.36186 19.3407 1.15265 18.8815 1.18029C18.4224 1.21186 18.008 1.49213 17.784 1.91844L9.53388 17.6211C9.31737 18.0356 9.30617 18.5369 9.50775 18.9632L11.1578 22.4527C11.378 22.9184 11.8223 23.2263 12.315 23.2461C12.3337 23.2461 12.3524 23.2461 12.3748 23.2461C12.8489 23.2461 13.2894 22.9856 13.5357 22.5592L22.6109 6.8566C22.9021 6.35529 22.8722 5.71581 22.5362 5.24213Z" fill="#FB3B33"/>
<path d="M13.3943 24H8.79515C7.20112 24 5.75642 23.0803 4.99487 21.6276L0 12.1697L6.22679 0H13.3943L7.09659 12.0947L13.3943 24ZM1.77322 12.1697L6.33504 20.8579C6.84274 21.8132 7.78348 22.3895 8.79515 22.3895H10.7513L5.31965 12.1342L10.7513 1.68553H7.16752L1.77322 12.1697Z" fill="white"/>
<path d="M25.7359 24H18.6057L24.9034 12.0592L18.6057 0H23.4214C24.8698 0 26.21 0.84079 26.8969 2.18289L32 12.1737L25.7359 24ZM21.2487 22.3539H24.8325L30.2268 12.1342L25.5194 2.94868C25.0863 2.14342 24.2874 1.61053 23.4214 1.61053H21.2487L26.6766 12.0592L21.2487 22.3539Z" fill="white"/>
</g>
<defs>
<clipPath id="clip0_1_61">
<rect width="32" height="24" fill="white"/>
</clipPath>
</defs>
</svg>
